<?xml version="1.0" standalone="no"?>
<!DOCTYPE svg PUBLIC "-//W3C//DTD SVG 20010904//EN"
 "http://www.w3.org/TR/2001/REC-SVG-20010904/DTD/svg10.dtd">
<svg version="1.0" xmlns="http://www.w3.org/2000/svg"
 width="1485.000000pt" height="1485.000000pt" viewBox="0 0 1485.000000 1485.000000"
 preserveAspectRatio="xMidYMid meet">
<metadata>
Created by potrace 1.11, written by Peter Selinger 2001-2013
</metadata>
<g transform="translate(0.000000,1485.000000) scale(0.100000,-0.100000)"
fill="#000000" stroke="none">
<path d="M6858 14245 c-2 -1 -133 -6 -293 -10 -159 -4 -326 -8 -370 -10 -44
-2 -147 -6 -230 -9 -82 -4 -184 -8 -225 -10 -41 -3 -133 -7 -204 -11 -71 -3
-147 -8 -170 -10 -23 -2 -86 -6 -141 -10 -139 -8 -223 -14 -291 -20 -33 -2
-93 -7 -134 -10 -41 -4 -95 -8 -120 -10 -162 -14 -241 -22 -325 -31 -98 -10
-141 -14 -195 -20 -30 -3 -66 -7 -80 -9 -14 -2 -52 -7 -85 -10 -33 -3 -71 -8
-85 -10 -29 -5 -100 -14 -150 -20 -71 -8 -326 -46 -370 -55 -25 -5 -61 -11
-80 -14 -73 -9 -318 -58 -439 -87 -69 -17 -133 -32 -141 -34 -59 -14 -238 -72
-313 -102 -155 -61 -264 -137 -288 -201 -5 -14 -8 -55 -5 -91 3 -36 8 -111 11
-166 3 -55 8 -127 10 -160 3 -33 7 -107 10 -165 3 -58 7 -123 10 -145 2 -22 7
-96 10 -165 4 -69 8 -145 10 -170 2 -25 7 -94 10 -155 3 -60 8 -132 10 -160 2
-27 7 -99 10 -160 7 -125 11 -193 20 -315 3 -47 8 -121 10 -165 2 -44 7 -120
10 -170 3 -49 8 -121 10 -160 3 -38 7 -106 10 -150 3 -44 8 -120 10 -170 3
-49 7 -119 9 -155 11 -149 17 -230 21 -323 3 -54 7 -122 10 -150 2 -29 7 -99
10 -157 12 -215 15 -266 20 -325 2 -33 7 -109 10 -170 4 -60 8 -135 10 -165 2
-30 7 -102 10 -160 11 -176 14 -222 20 -310 3 -47 7 -119 10 -160 8 -156 15
-265 30 -480 3 -41 7 -115 10 -164 2 -49 7 -121 10 -160 3 -39 7 -111 10 -161
3 -49 7 -119 10 -155 2 -36 7 -110 10 -165 3 -55 8 -127 10 -160 2 -33 7 -107
10 -165 3 -58 8 -125 10 -150 2 -25 6 -94 10 -155 3 -60 8 -137 10 -170 3 -33
7 -103 10 -155 5 -99 11 -198 20 -335 2 -44 7 -120 10 -170 3 -49 8 -117 10
-150 5 -74 13 -203 20 -315 3 -47 8 -123 10 -170 3 -47 7 -116 10 -155 3 -38
7 -113 10 -165 3 -52 7 -120 10 -150 2 -30 7 -100 10 -155 3 -55 8 -131 10
-170 3 -38 7 -113 10 -165 3 -52 7 -131 10 -175 8 -108 13 -192 20 -300 3 -49
8 -121 10 -160 2 -38 7 -110 10 -160 7 -124 13 -224 20 -330 8 -115 12 -184
20 -315 3 -58 8 -130 10 -160 2 -30 7 -102 10 -160 4 -58 8 -125 10 -150 2
-25 6 -101 10 -170 4 -69 8 -140 10 -157 2 -30 0 -34 -34 -42 -80 -19 -527
-132 -541 -136 -55 -16 -204 -59 -250 -71 -180 -50 -613 -205 -835 -299 -165
-70 -456 -215 -582 -292 -100 -60 -265 -171 -297 -198 -6 -5 -34 -28 -61 -50
-28 -22 -89 -78 -137 -126 l-88 -86 0 -156 c0 -150 1 -157 20 -157 13 0 32 19
56 58 172 271 573 556 1109 787 61 26 128 55 150 65 206 91 886 312 1145 371
25 6 52 12 60 15 79 20 313 76 340 80 19 3 38 8 42 10 5 4 195 44 278 60 14 3
57 11 95 19 73 14 359 66 385 70 17 2 96 16 125 21 11 3 38 7 60 9 22 3 51 7
65 10 30 6 70 12 130 20 25 3 56 8 70 10 36 6 249 35 290 40 225 27 294 35
345 40 33 3 74 7 90 10 17 2 57 7 90 10 99 9 168 16 210 21 38 4 88 8 250 19
39 3 95 8 125 10 30 3 91 7 135 10 44 3 107 8 140 10 33 2 112 7 175 10 63 3
149 8 190 10 93 5 401 16 580 20 189 5 996 5 1165 0 454 -13 787 -28 1095 -51
41 -3 102 -7 135 -9 33 -2 89 -7 125 -10 267 -22 304 -26 330 -30 14 -2 65 -6
114 -10 50 -3 92 -8 95 -9 3 -2 42 -7 86 -11 44 -4 91 -8 105 -10 14 -2 61 -8
105 -14 44 -5 103 -13 130 -16 65 -8 113 -14 150 -20 17 -3 53 -7 80 -10 28
-3 61 -8 75 -10 14 -3 43 -7 65 -11 53 -7 343 -53 375 -59 45 -9 79 -15 143
-25 34 -6 118 -22 187 -35 69 -13 140 -27 159 -30 19 -3 37 -7 40 -9 3 -2 24
-7 46 -10 22 -4 100 -20 173 -37 74 -17 146 -33 160 -35 15 -3 41 -9 57 -14
17 -5 89 -23 160 -41 299 -73 897 -256 1040 -318 11 -5 72 -30 135 -55 641
-252 1102 -558 1297 -859 l44 -67 114 0 115 0 -17 38 c-116 252 -357 491 -718
712 -394 241 -951 470 -1580 650 -60 17 -117 33 -125 36 -13 3 -16 24 -14 132
4 214 15 645 19 687 2 22 6 92 10 155 4 63 8 140 10 170 2 30 6 100 10 155 3
55 8 125 10 155 2 30 7 100 10 155 11 188 14 240 20 325 3 47 7 121 10 165 5
83 13 205 20 310 2 33 6 105 10 160 3 55 7 132 10 170 3 39 7 111 10 160 3 50
7 122 10 160 3 39 7 111 10 160 7 115 14 219 20 320 3 44 8 114 10 155 5 106
15 255 20 325 3 33 7 105 10 160 3 55 8 129 10 165 20 330 24 393 30 475 4 65
11 181 20 335 2 36 7 101 10 145 3 44 8 121 10 170 2 50 7 126 10 170 9 128
14 203 20 310 3 55 7 129 10 165 3 36 7 106 10 155 3 50 8 115 10 145 2 30 7
109 10 175 4 66 8 140 10 165 2 25 7 95 10 155 3 61 8 135 10 165 2 30 7 102
10 160 3 58 8 130 10 160 3 30 7 98 10 150 3 52 7 129 10 170 5 72 8 134 20
325 8 138 15 243 20 315 3 36 7 110 10 165 3 55 7 127 10 160 2 33 7 105 10
160 3 55 8 132 11 170 2 39 6 106 9 150 2 44 7 118 10 165 8 121 14 212 20
315 3 50 7 117 10 150 2 33 7 112 10 175 4 63 8 140 11 170 2 30 6 93 9 140 3
47 7 121 10 165 11 177 15 234 20 325 3 52 7 124 10 160 2 36 7 108 10 160 6
103 12 193 20 312 5 70 3 80 -19 113 -38 55 -82 90 -176 139 -113 59 -404 155
-540 179 -14 3 -43 10 -65 15 -22 6 -51 13 -65 16 -14 2 -59 11 -100 20 -41 8
-88 18 -105 21 -65 11 -341 57 -360 60 -11 1 -38 5 -60 8 -22 4 -58 9 -80 12
-44 5 -91 12 -148 20 -21 3 -59 7 -85 10 -26 3 -81 10 -122 15 -138 17 -165
20 -225 25 -33 3 -73 7 -90 10 -16 2 -66 7 -110 10 -44 3 -93 8 -110 10 -16 2
-66 7 -110 10 -44 4 -96 8 -115 10 -19 2 -78 7 -130 10 -52 3 -115 8 -140 10
-144 12 -196 15 -295 20 -60 3 -139 7 -175 10 -36 2 -121 7 -190 10 -69 3
-159 8 -200 10 -41 2 -163 7 -270 11 -107 3 -240 8 -295 10 -117 5 -1832 14
-1837 9z"/>
</g>
</svg>
